<svg width="216" height="38" viewBox="0 0 216 38" fill="none" xmlns="http://www.w3.org/2000/svg">
<path d="M34.2812 16.0759C33.7127 13.0307 32.4488 10.1655 30.5923 7.71291C32.689 5.15098 35.2061 2.98113 38.0311 1.30042C48.3216 25.3473 29.4587 36.4178 29.4587 36.4178H29.136C33.6795 31.1007 35.4585 24.1004 34.2812 16.0759Z" fill="#FF93C7"/>
<path d="M4.88345 23.9572C9.29995 24.1152 13.6175 25.3358 17.4849 27.5197C16.9184 26.3689 16.4825 25.1557 16.1855 23.9038C14.4414 16.5027 16.857 7.28473 19.4209 0.266602C23.0923 1.56691 27.0341 4.90676 29.7462 8.78098C31.3852 10.9869 32.5016 13.5507 33.0078 16.2711C34.3508 25.3822 31.6648 31.9818 27.3044 36.515L27.1126 36.7199C27.1126 36.7199 18.043 38.2963 10.9531 34.9119C2.74688 30.9754 0.69751 24.4114 0.69751 24.4114C2.06544 24.0625 3.47426 23.9096 4.88345 23.9572Z" fill="#419FB9"/>
<path d="M29.7464 8.78101L29.5982 8.56726C25.3079 14.5867 23.0464 21.8655 23.1535 29.3099C23.1506 31.9131 23.4107 34.5097 23.9297 37.0584C24.9953 37.0117 26.0578 36.9076 27.1128 36.7466C27.1825 36.6843 27.2436 36.6041 27.3133 36.5329C31.6737 31.9818 34.3509 25.3823 33.008 16.2712C32.5018 13.5507 31.3854 10.987 29.7464 8.78101Z" fill="#265E6C"/>
<path d="M63.853 28.0135L62.7897 16.7487L59.1302 28.0135H55.6361L51.811 16.6036L50.8898 28.0135H47.3958L49.2849 10.9114C49.7814 10.6467 50.5839 10.4042 51.1506 10.4042C52.473 10.4042 53.4644 10.8141 53.8656 12.0198L57.8094 24.0326L61.8468 10.9592C62.3434 10.6211 63.0037 10.4042 63.6407 10.4042C64.9865 10.4042 65.6469 10.8858 65.8608 12.5987L67.75 28.0118H63.853V28.0135Z" fill="#419FB9"/>
<path d="M78.9396 24.4925L80.379 26.8322C78.9145 27.7732 77.2862 28.2548 75.3034 28.2548C71.5486 28.2548 69.3301 26.0108 69.3301 22.2006C69.3301 18.0523 71.6673 15.5674 75.6579 15.5674C78.6571 15.5674 80.4041 17.1113 80.4041 19.644C80.4041 22.081 78.209 23.5276 74.5478 23.5276C74.0278 23.5276 73.5096 23.4798 72.9897 23.4302C73.2488 24.7094 74.0278 25.4557 75.5626 25.4557C76.9084 25.4574 77.9934 25.1193 78.9396 24.4925ZM72.9178 21.333C73.4611 21.3808 74.0044 21.4047 74.4993 21.4047C76.0106 21.4047 76.8599 20.8258 76.8599 19.813C76.8599 18.9933 76.2931 18.4622 75.3018 18.4622C73.9794 18.4622 73.1067 19.5227 72.9178 21.333Z" fill="#419FB9"/>
<path d="M83.0695 33.8032L81.4395 31.1254C82.1483 30.8607 82.6666 30.0648 82.6666 28.5449V15.8096H86.3261V29.2212C86.3278 31.8495 84.9118 33.0791 83.0695 33.8032ZM84.4872 13.9276C85.7393 13.9276 86.5184 13.2035 86.5184 11.926C86.5184 10.6725 85.7393 9.97229 84.4872 9.97229C83.235 9.97229 82.4559 10.6725 82.4559 11.926C82.4559 13.2035 83.235 13.9276 84.4872 13.9276Z" fill="#419FB9"/>
<path d="M88.166 21.9119C88.166 17.9327 90.5032 15.5674 94.5172 15.5674C98.5312 15.5674 100.893 17.931 100.893 21.9119C100.893 25.8929 98.5329 28.2565 94.5172 28.2565C90.5015 28.2565 88.166 25.8912 88.166 21.9119ZM97.1854 21.9119C97.1854 19.7891 96.194 18.5117 94.5406 18.5117C92.8872 18.5117 91.8958 19.7908 91.8958 21.9119C91.8958 24.0348 92.8872 25.2883 94.5406 25.2883C96.194 25.2883 97.1854 24.0348 97.1854 21.9119Z" fill="#419FB9"/>
<path d="M111.323 15.9773L110.259 19.2819C109.858 19.0172 109.338 18.8481 108.771 18.8481C107.26 18.8481 106.316 19.8848 106.316 22.9008V28.014H102.656V16.0746C103.293 15.7843 103.978 15.5674 104.615 15.5674C105.607 15.5674 106.197 16.435 106.197 17.6902C107.071 16.1224 108.275 15.5674 109.502 15.5674C110.141 15.5674 110.779 15.7365 111.323 15.9773Z" fill="#419FB9"/>
<path d="M118.692 28.2573C114.82 28.2573 112.505 25.8936 112.505 21.8888C112.505 17.9095 115.056 15.5698 118.384 15.5698C119.849 15.5698 122.209 16.1727 122.965 18.9957L120.297 20.0819C119.989 19.1409 119.423 18.5141 118.573 18.5141C117.085 18.5141 116.213 19.7694 116.213 21.8905C116.213 24.0372 117.276 25.2908 118.998 25.2908C120.108 25.2908 121.384 24.8809 122.209 24.2541L123.366 26.8586C122.069 27.8235 120.322 28.2573 118.692 28.2573Z" fill="#265E6C"/>
<path d="M123.858 21.9102C123.858 17.931 126.195 15.5657 130.209 15.5657C134.223 15.5657 136.585 17.9293 136.585 21.9102C136.585 25.8912 134.223 28.2548 130.209 28.2548C126.195 28.2548 123.858 25.8895 123.858 21.9102ZM132.877 21.9102C132.877 19.7874 131.886 18.51 130.232 18.51C128.579 18.51 127.587 19.7891 127.587 21.9102C127.587 24.0331 128.579 25.2866 130.232 25.2866C131.886 25.2866 132.877 24.0331 132.877 21.9102Z" fill="#265E6C"/>
<path d="M149.941 20.1495V28.0123H146.282V20.8001C146.282 19.4014 145.691 18.5083 144.581 18.5083C143 18.5083 142.008 19.3758 142.008 21.9341V28.0123H138.349V16.0729C138.986 15.7826 139.671 15.5657 140.308 15.5657C141.253 15.5657 141.843 16.3615 141.89 17.5433C142.905 16.0712 144.299 15.5657 145.762 15.5657C148.407 15.5657 149.941 17.2547 149.941 20.1495Z" fill="#265E6C"/>
<path d="M164.073 12.0938L162.468 14.7478C161.453 14.0237 160.059 13.4943 158.666 13.4943C157.367 13.4943 156.588 14.0732 156.588 14.9903C156.588 16.2199 157.957 16.7033 159.611 17.3061C161.854 18.1259 164.499 19.1642 164.499 22.6362C164.499 26.2056 162.09 28.2567 158.006 28.2567C155.762 28.2567 153.684 27.606 152.173 26.4481L153.377 23.6985C154.533 24.6156 156.21 25.1706 158.193 25.1706C159.728 25.1706 160.625 24.52 160.625 23.4338C160.625 22.059 159.256 21.5518 157.673 20.9984C155.43 20.2026 152.715 19.2138 152.715 15.5471C152.715 12.2185 154.91 10.4099 158.594 10.4099C160.46 10.4065 162.443 10.9616 164.073 12.0938Z" fill="#FF93C7"/>
<path d="M176.775 20.1532V27.7513C176.138 28.0399 175.476 28.2585 174.815 28.2585C173.894 28.2585 173.304 27.4866 173.234 26.3765C172.266 27.7752 170.967 28.2585 169.668 28.2585C167.284 28.2585 165.843 26.8359 165.843 24.5201C165.843 21.9635 167.944 20.4674 171.652 20.4674C172.124 20.4674 172.62 20.4674 173.117 20.4913C173.047 19.1643 172.573 18.3685 171.039 18.3685C170.001 18.3685 168.937 18.7066 167.993 19.3334L166.528 17.0176C168.04 16.0766 169.67 15.571 171.652 15.571C174.886 15.5693 176.775 17.2584 176.775 20.1532ZM173.113 22.6363C172.617 22.6124 172.169 22.6124 171.744 22.6124C170.186 22.6124 169.312 23.1914 169.312 24.1802C169.312 24.9522 169.736 25.5072 170.681 25.5072C171.933 25.5072 173.113 24.7113 173.113 22.6363Z" fill="#FF93C7"/>
<path d="M179.346 24.7109V9.70766C179.983 9.41904 180.668 9.20044 181.305 9.20044C182.392 9.20044 183.006 9.92456 183.006 10.9373V24.3967C183.006 24.9756 183.313 25.2899 183.855 25.2899C184.233 25.2899 184.587 25.2181 184.87 25.1208L185.343 27.4844C184.54 28.0155 183.713 28.2564 182.698 28.2564C180.598 28.2564 179.346 26.9789 179.346 24.7109Z" fill="#FF93C7"/>
<path d="M199.408 17.3058V27.7509C198.771 28.0395 198.085 28.2581 197.448 28.2581C196.504 28.2581 195.937 27.4622 195.867 26.3282C194.922 27.7509 193.6 28.2581 192.231 28.2581C189.586 28.2581 188.051 26.5691 188.051 23.6743V16.0762C188.688 15.7859 189.374 15.569 190.011 15.569C191.097 15.569 191.711 16.2931 191.711 17.3058V22.998C191.711 24.4206 192.301 25.2899 193.411 25.2899C194.876 25.2899 195.748 24.4223 195.748 21.9135V16.0762C196.385 15.7859 197.071 15.569 197.708 15.569C198.794 15.569 199.408 16.2931 199.408 17.3058Z" fill="#FF93C7"/>
<path d="M213.622 10.9371V27.7489C212.985 28.0375 212.299 28.2561 211.662 28.2561C210.741 28.2561 210.151 27.4603 210.081 26.3502C209.066 27.7728 207.625 28.2561 206.185 28.2561C203.422 28.2561 201.605 26.0616 201.605 22.3214C201.605 18.0519 204.061 15.567 208.217 15.567C208.665 15.567 209.28 15.5909 209.964 15.6148V9.70571C210.601 9.41709 211.286 9.19849 211.923 9.19849C213.006 9.20019 213.622 9.92431 213.622 10.9371ZM209.96 18.3661C209.417 18.3422 208.946 18.3422 208.544 18.3422C206.562 18.3422 205.309 19.8143 205.309 22.3214C205.309 24.2034 206.112 25.3118 207.553 25.3118C208.971 25.3118 209.962 24.4682 209.962 21.9098V18.3661H209.96Z" fill="#FF93C7"/>
</svg>
