<svg width="186" height="186" viewBox="0 0 186 186" fill="none" xmlns="http://www.w3.org/2000/svg">
<g opacity="0.2" clip-path="url(#clip0_5_5685)">
<path d="M154.571 81.1234C152.725 68.5835 146.467 55.0689 137.616 42.7062C154.731 22.3219 171.866 13.2236 171.866 13.2236C219.224 123.534 132.398 174.648 132.398 174.648C131.898 174.689 131.418 174.71 130.925 174.744C151.812 150.189 159.996 118.007 154.571 81.1234Z" fill="white"/>
<path fill-rule="evenodd" clip-rule="evenodd" d="M77.2821 133.655C62.2469 124.652 39.3475 117.789 19.2872 117.387C12.3827 117.251 5.80482 117.864 0 119.445C0 119.445 9.44367 149.616 47.2117 167.724C79.8413 183.365 121.575 176.175 121.575 176.175C121.577 176.173 121.578 176.171 121.58 176.169C121.358 176.207 115.666 177.165 106.958 177.606C104.612 166.245 103.353 154.305 103.353 141.983C103.353 104.93 114.655 71.3117 133.015 46.6273C120.565 29.253 102.765 14.3197 86.1726 8.39844C74.3964 40.6616 63.14 83.0112 71.3174 117.039C72.7103 122.846 74.6563 128.421 77.2821 133.655Z" fill="white"/>
<path opacity="0.5" fill-rule="evenodd" clip-rule="evenodd" d="M133.015 46.6267C133.246 46.9501 133.476 47.2744 133.704 47.5995C141.488 58.7014 147.067 70.7302 148.726 82.0298C154.891 123.93 142.541 154.25 122.488 175.2C122.36 175.334 122.235 175.47 122.109 175.607C121.936 175.797 121.762 175.987 121.582 176.168C121.385 176.201 115.687 177.163 106.958 177.605C104.612 166.244 103.353 154.304 103.353 141.982C103.353 104.929 114.655 71.3111 133.015 46.6267Z" fill="white" fill-opacity="0.8"/>
</g>
<defs>
<clipPath id="clip0_5_5685">
<rect width="186" height="186" fill="white"/>
</clipPath>
</defs>
</svg>
